<svg width="24" height="24" viewBox="0 0 24 24" fill="none" xmlns="http://www.w3.org/2000/svg">
<g clip-path="url(#clip0_508_2)">
<path d="M1.49999 6H22.5C22.8978 6 23.2793 5.84196 23.5607 5.56066C23.842 5.27936 24 4.89782 24 4.5C24 4.10218 23.842 3.72064 23.5607 3.43934C23.2793 3.15804 22.8978 3 22.5 3H1.49999C1.10217 3 0.720637 3.15804 0.439332 3.43934C0.158028 3.72064 -7.62939e-06 4.10218 -7.62939e-06 4.5C-7.62939e-06 4.89782 0.158028 5.27936 0.439332 5.56066C0.720637 5.84196 1.10217 6 1.49999 6Z" fill="white"/>
<path d="M22.5 8H1.49999C1.10217 8 0.720637 8.15804 0.439332 8.43934C0.158028 8.72064 -7.62939e-06 9.10218 -7.62939e-06 9.5C-7.62939e-06 9.89782 0.158028 10.2794 0.439332 10.5607C0.720637 10.842 1.10217 11 1.49999 11H22.5C22.8978 11 23.2793 10.842 23.5607 10.5607C23.842 10.2794 24 9.89782 24 9.5C24 9.10218 23.842 8.72064 23.5607 8.43934C23.2793 8.15804 22.8978 8 22.5 8Z" fill="white"/>
<path d="M22.5 18H1.49999C1.10217 18 0.720637 18.158 0.439332 18.4393C0.158028 18.7206 -7.62939e-06 19.1022 -7.62939e-06 19.5C-7.62939e-06 19.8978 0.158028 20.2794 0.439332 20.5607C0.720637 20.842 1.10217 21 1.49999 21H22.5C22.8978 21 23.2793 20.842 23.5607 20.5607C23.842 20.2794 24 19.8978 24 19.5C24 19.1022 23.842 18.7206 23.5607 18.4393C23.2793 18.158 22.8978 18 22.5 18Z" fill="white"/>
<path d="M22.5 13H1.49999C1.10217 13 0.720637 13.158 0.439332 13.4393C0.158028 13.7206 -7.62939e-06 14.1022 -7.62939e-06 14.5C-7.62939e-06 14.8978 0.158028 15.2794 0.439332 15.5607C0.720637 15.842 1.10217 16 1.49999 16H22.5C22.8978 16 23.2793 15.842 23.5607 15.5607C23.842 15.2794 24 14.8978 24 14.5C24 14.1022 23.842 13.7206 23.5607 13.4393C23.2793 13.158 22.8978 13 22.5 13Z" fill="white"/>
</g>
<defs>
<clipPath id="clip0_508_2">
<rect width="24" height="24" fill="white"/>
</clipPath>
</defs>
</svg>
