<svg width="25" height="25" viewBox="0 0 25 25" fill="none" xmlns="http://www.w3.org/2000/svg">
<g clip-path="url(#clip0_98_568)">
<path d="M12.0118 24.0344C11.8802 24.0351 11.7497 24.0098 11.6279 23.96C11.506 23.9102 11.3952 23.8368 11.3017 23.7441L3.12766 15.5706C2.6618 15.1059 2.2921 14.554 2.03974 13.9464C1.78738 13.3389 1.65731 12.6876 1.65699 12.0299C1.65667 11.3723 1.7861 10.7211 2.03787 10.1138C2.28964 9.50642 2.6588 8.95483 3.1242 8.49058L11.2902 0.324178C11.4785 0.135957 11.7338 0.0302813 12.0001 0.0303976C12.2664 0.0305139 12.5218 0.136413 12.7102 0.324798C12.8986 0.513183 13.0046 0.768623 13.0047 1.03492C13.0048 1.30122 12.8992 1.55657 12.7109 1.74479L4.5449 9.91119C3.98337 10.4734 3.66819 11.2358 3.66858 12.0308C3.66896 12.8258 3.9849 13.5884 4.54698 14.1512L12.721 22.3247C12.8148 22.4177 12.8892 22.5283 12.94 22.6502C12.9909 22.7721 13.0171 22.9028 13.0171 23.0348C13.0172 23.1668 12.9911 23.2975 12.9404 23.4194C12.8897 23.5412 12.8154 23.6518 12.7217 23.7447C12.6283 23.8373 12.5175 23.9106 12.3957 23.9603C12.2739 24.01 12.1434 24.0352 12.0118 24.0344Z" fill="#374957"/>
<path d="M22.0119 24.0387C21.8803 24.0394 21.7498 24.0141 21.628 23.9643C21.5061 23.9144 21.3952 23.8411 21.3018 23.7483L11.717 14.1542C11.155 13.5915 10.839 12.8288 10.8386 12.0338C10.8382 11.2388 11.1534 10.4765 11.715 9.91422L21.2903 0.328442C21.4785 0.140221 21.7339 0.0345449 22.0002 0.0346612C22.2665 0.0347775 22.5219 0.140676 22.7103 0.329062C22.8987 0.517447 23.0046 0.772887 23.0048 1.03919C23.0049 1.30549 22.8992 1.56084 22.711 1.74906L13.1257 11.3248C13.032 11.4178 12.9576 11.5283 12.9069 11.6502C12.8562 11.772 12.8301 11.9027 12.8302 12.0347C12.8303 12.1667 12.8565 12.2974 12.9073 12.4193C12.9581 12.5412 13.0326 12.6518 13.1263 12.7448L22.7211 22.329C22.8148 22.422 22.8893 22.5326 22.9401 22.6545C22.9909 22.7764 23.0171 22.9071 23.0172 23.0391C23.0173 23.1711 22.9912 23.3018 22.9405 23.4236C22.8898 23.5455 22.8154 23.656 22.7218 23.749C22.6284 23.8416 22.5176 23.9149 22.3958 23.9646C22.274 24.0143 22.1435 24.0395 22.0119 24.0387Z" fill="#374957"/>
</g>
<defs>
<clipPath id="clip0_98_568">
<rect width="24" height="24" fill="white" transform="matrix(1 0.000436634 0.000488765 0.999996 0 0.0292969)"/>
</clipPath>
</defs>
</svg>
