<svg width="25" height="25" viewBox="0 0 25 25" fill="none" xmlns="http://www.w3.org/2000/svg">
<g clip-path="url(#clip0_98_567)">
<path d="M11.8415 24.0342C11.7099 24.0349 11.5794 24.0096 11.4576 23.9598C11.3357 23.91 11.2249 23.8366 11.1314 23.7439C11.0376 23.6509 10.9631 23.5403 10.9123 23.4184C10.8615 23.2965 10.8353 23.1658 10.8352 23.0338C10.8352 22.9018 10.8612 22.7711 10.9119 22.6492C10.9626 22.5274 11.037 22.4168 11.1307 22.3239L19.2967 14.1575C19.8582 13.5953 20.1734 12.8329 20.173 12.0379C20.1726 11.2429 19.8567 10.4803 19.2946 9.91753L11.1206 1.744C11.0273 1.65072 10.9533 1.54 10.9028 1.41815C10.8523 1.29631 10.8262 1.16573 10.8262 1.03387C10.826 0.767573 10.9317 0.512226 11.1199 0.324005C11.3081 0.135784 11.5635 0.030108 11.8298 0.0302243C12.0961 0.0303406 12.3515 0.13624 12.5399 0.324625L20.7139 8.49816C21.1798 8.96282 21.5495 9.51473 21.8019 10.1223C22.0542 10.7299 22.1843 11.3811 22.1846 12.0388C22.1849 12.6965 22.0555 13.3476 21.8037 13.9549C21.552 14.5623 21.1828 15.1139 20.7174 15.5781L12.5514 23.7445C12.458 23.8372 12.3472 23.9104 12.2254 23.9602C12.1036 24.0099 11.9731 24.035 11.8415 24.0342Z" fill="#374957"/>
<path d="M1.84175 24.0298C1.71015 24.0305 1.57967 24.0052 1.45781 23.9554C1.33595 23.9056 1.22509 23.8322 1.13161 23.7395C1.03783 23.6465 0.963386 23.5359 0.912558 23.414C0.861729 23.2921 0.835527 23.1614 0.835462 23.0294C0.835398 22.8974 0.861472 22.7667 0.912182 22.6448C0.962891 22.523 1.03723 22.4124 1.13091 22.3195L10.7163 12.7437C10.81 12.6508 10.8843 12.5403 10.935 12.4184C10.9857 12.2966 11.0118 12.1659 11.0117 12.0339C11.0117 11.9019 10.9855 11.7712 10.9346 11.6493C10.8838 11.5274 10.8093 11.4168 10.7156 11.3238L1.12086 1.7396C0.932459 1.55122 0.826546 1.29578 0.826416 1.02948C0.826286 0.763178 0.93195 0.507831 1.12016 0.31961C1.30837 0.131389 1.56372 0.0257135 1.83002 0.0258298C2.09632 0.0259461 2.35177 0.131845 2.54017 0.32023L12.1249 9.91438C12.687 10.4771 13.0029 11.2398 13.0033 12.0347C13.0037 12.8297 12.6885 13.5921 12.127 14.1544L2.55161 23.7401C2.45822 23.8328 2.34744 23.9061 2.22562 23.9558C2.10381 24.0055 1.97336 24.0306 1.84175 24.0298Z" fill="#374957"/>
</g>
<defs>
<clipPath id="clip0_98_567">
<rect width="24" height="24" fill="white" transform="matrix(1 0.000436634 0.000488765 0.999996 0 0.0292969)"/>
</clipPath>
</defs>
</svg>
