<svg width="14" height="8" viewBox="0 0 14 8" fill="none" xmlns="http://www.w3.org/2000/svg">
<path d="M6.92886 2.68612L1.97886 7.63612C1.88661 7.73163 1.77626 7.80781 1.65426 7.86022C1.53226 7.91263 1.40104 7.94022 1.26826 7.94137C1.13548 7.94252 1.0038 7.91722 0.880902 7.86694C0.758006 7.81666 0.646354 7.74241 0.552461 7.64851C0.458568 7.55462 0.384314 7.44297 0.334034 7.32007C0.283753 7.19718 0.258451 7.0655 0.259605 6.93272C0.260759 6.79994 0.288345 6.66872 0.340754 6.54671C0.393164 6.42471 0.469345 6.31437 0.564855 6.22212L6.22186 0.565119C6.40938 0.377648 6.66369 0.272332 6.92886 0.272332C7.19402 0.272332 7.44833 0.377648 7.63586 0.565119L13.2929 6.22212C13.3884 6.31436 13.4645 6.42471 13.517 6.54671C13.5694 6.66872 13.597 6.79994 13.5981 6.93272C13.5993 7.0655 13.574 7.19718 13.5237 7.32007C13.4734 7.44297 13.3991 7.55462 13.3053 7.64851C13.2114 7.74241 13.0997 7.81666 12.9768 7.86694C12.8539 7.91722 12.7222 7.94252 12.5895 7.94137C12.4567 7.94021 12.3255 7.91263 12.2035 7.86022C12.0814 7.80781 11.9711 7.73163 11.8789 7.63612L6.92886 2.68612Z" fill="#21272A"/>
</svg>
