<svg width="24" height="14" viewBox="0 0 24 14" fill="none" xmlns="http://www.w3.org/2000/svg">
<path d="M19.1218 13.3939L23.0408 9.47489C23.6772 8.80803 24.0322 7.92167 24.0322 6.99989C24.0322 6.07811 23.6772 5.19175 23.0408 4.52489L19.1218 0.605887C18.8405 0.324492 18.459 0.166354 18.0611 0.16626C17.6633 0.166166 17.2817 0.324125 17.0003 0.605387C16.7189 0.88665 16.5608 1.26818 16.5607 1.66603C16.5606 2.06389 16.7185 2.44549 16.9998 2.72689L19.7798 5.50789L1.52979 5.53089C1.13196 5.53089 0.75043 5.68892 0.469125 5.97023C0.18782 6.25153 0.0297852 6.63307 0.0297852 7.03089C0.0297852 7.42872 0.18782 7.81025 0.469125 8.09155C0.75043 8.37286 1.13196 8.53089 1.52979 8.53089L19.7608 8.50789L16.9998 11.2729C16.7265 11.5558 16.5754 11.9347 16.5788 12.328C16.5822 12.7213 16.7399 13.0975 17.0181 13.3756C17.2962 13.6537 17.6724 13.8115 18.0657 13.8149C18.459 13.8183 18.8379 13.6671 19.1208 13.3939H19.1218Z" fill="#374957"/>
</svg>
