<svg width="54" height="54" viewBox="0 0 54 54" fill="none" xmlns="http://www.w3.org/2000/svg">
<circle cx="27" cy="27" r="27" fill="#FFFCFC"/>
<path d="M21.0583 27.119C21.269 27.0298 21.4957 26.9834 21.7248 26.9826C21.954 26.9818 22.181 27.0265 22.3924 27.1142C22.6038 27.2019 22.7953 27.3307 22.9557 27.493C23.116 27.6553 23.2419 27.8479 23.326 28.0593C23.41 28.2707 23.4504 28.4967 23.4448 28.7239C23.4393 28.9511 23.3878 29.1748 23.2936 29.3819C23.1993 29.5891 23.0641 29.7753 22.896 29.9298C22.7279 30.0842 22.5303 30.2036 22.3149 30.281C21.1689 30.7287 20.1854 31.5082 19.4923 32.5178C18.7992 33.5274 18.4285 34.7206 18.4286 35.942V38.9C18.4286 39.3509 18.6092 39.7833 18.9307 40.1021C19.2522 40.4209 19.6882 40.6 20.1429 40.6H33.8571C34.3118 40.6 34.7478 40.4209 35.0693 40.1021C35.3908 39.7833 35.5714 39.3509 35.5714 38.9V36.1001C35.5716 34.8395 35.1855 33.6086 34.4642 32.5706C33.7429 31.5326 32.7205 30.7365 31.5326 30.2878C31.3158 30.2132 31.1163 30.0962 30.946 29.9437C30.7756 29.7912 30.6379 29.6064 30.5409 29.4002C30.4439 29.1939 30.3897 28.9705 30.3814 28.7431C30.3731 28.5157 30.411 28.2889 30.4927 28.0763C30.5744 27.8636 30.6984 27.6694 30.8572 27.5052C31.016 27.3409 31.2065 27.21 31.4173 27.1201C31.6281 27.0302 31.8549 26.9831 32.0844 26.9818C32.3139 26.9804 32.5413 27.0248 32.7531 27.1122C34.5902 27.8061 36.1712 29.0372 37.2868 30.6423C38.4024 32.2473 38.9999 34.1507 39 36.1001V38.9C39 40.2526 38.4582 41.5498 37.4937 42.5062C36.5292 43.4627 35.2211 44 33.8571 44H20.1429C18.7789 44 17.4708 43.4627 16.5063 42.5062C15.5418 41.5498 15 40.2526 15 38.9V35.942C15.0002 34.0383 15.5782 32.1787 16.6587 30.6051C17.7392 29.0315 19.2722 27.8168 21.0583 27.119ZM27 10C28.8186 10 30.5628 10.7164 31.8487 11.9917C33.1347 13.2669 33.8571 14.9965 33.8571 16.8V20.2C33.8571 22.0035 33.1347 23.7331 31.8487 25.0083C30.5628 26.2836 28.8186 27 27 27C25.1814 27 23.4372 26.2836 22.1513 25.0083C20.8653 23.7331 20.1429 22.0035 20.1429 20.2V16.8C20.1429 14.9965 20.8653 13.2669 22.1513 11.9917C23.4372 10.7164 25.1814 10 27 10ZM27 13.4C26.0907 13.4 25.2186 13.7582 24.5756 14.3958C23.9327 15.0335 23.5714 15.8983 23.5714 16.8V20.2C23.5714 21.1017 23.9327 21.9665 24.5756 22.6042C25.2186 23.2418 26.0907 23.6 27 23.6C27.9093 23.6 28.7814 23.2418 29.4244 22.6042C30.0673 21.9665 30.4286 21.1017 30.4286 20.2V16.8C30.4286 15.8983 30.0673 15.0335 29.4244 14.3958C28.7814 13.7582 27.9093 13.4 27 13.4Z" fill="#21272A"/>
</svg>
